<mxfile host="app.diagrams.net" modified="2023-09-20T14:28:32.692Z" agent="Mozilla/5.0 (Windows NT 10.0; Win64; x64) AppleWebKit/537.36 (KHTML, like Gecko) Chrome/113.0.0.0 Safari/537.36" etag="mFtj3vfShqeCwHg7t1eA" version="21.7.5" type="github">
  <diagram name="第 1 页" id="3bwdyVWcCXIvYFJoVtsS">
    <mxGraphModel dx="1434" dy="774" grid="1" gridSize="10" guides="1" tooltips="1" connect="1" arrows="1" fold="1" page="1" pageScale="1" pageWidth="827" pageHeight="1169" math="0" shadow="0">
      <root>
        <mxCell id="0" />
        <mxCell id="1" parent="0" />
        <mxCell id="GNgH9nkebO3Cjv888WoJ-3" value="" style="rounded=0;whiteSpace=wrap;html=1;" vertex="1" parent="1">
          <mxGeometry x="170" y="10" width="490" height="130" as="geometry" />
        </mxCell>
        <mxCell id="GNgH9nkebO3Cjv888WoJ-1" value="&lt;font style=&quot;font-size: 16px;&quot;&gt;&lt;b&gt;远程分支&lt;/b&gt;&lt;/font&gt;" style="rounded=1;whiteSpace=wrap;html=1;fillColor=#fff2cc;strokeColor=#d6b656;" vertex="1" parent="1">
          <mxGeometry x="350" y="45" width="120" height="60" as="geometry" />
        </mxCell>
        <mxCell id="GNgH9nkebO3Cjv888WoJ-2" value="" style="rounded=0;whiteSpace=wrap;html=1;" vertex="1" parent="1">
          <mxGeometry x="170" y="210" width="490" height="470" as="geometry" />
        </mxCell>
        <mxCell id="GNgH9nkebO3Cjv888WoJ-4" value="&lt;b&gt;&lt;font style=&quot;font-size: 16px;&quot;&gt;远程服务器&lt;/font&gt;&lt;/b&gt;" style="text;html=1;strokeColor=none;fillColor=none;align=center;verticalAlign=middle;whiteSpace=wrap;rounded=0;" vertex="1" parent="1">
          <mxGeometry x="230" y="15" width="100" height="40" as="geometry" />
        </mxCell>
        <mxCell id="GNgH9nkebO3Cjv888WoJ-5" value="" style="image;aspect=fixed;perimeter=ellipsePerimeter;html=1;align=center;shadow=0;dashed=0;spacingTop=3;image=img/lib/active_directory/cluster_server.svg;" vertex="1" parent="1">
          <mxGeometry x="180" y="10" width="50" height="50" as="geometry" />
        </mxCell>
        <mxCell id="GNgH9nkebO3Cjv888WoJ-6" value="" style="image;points=[];aspect=fixed;html=1;align=center;shadow=0;dashed=0;image=img/lib/allied_telesis/computer_and_terminals/Personal_Computer_with_Server.svg;" vertex="1" parent="1">
          <mxGeometry x="180" y="230" width="50" height="50" as="geometry" />
        </mxCell>
        <mxCell id="GNgH9nkebO3Cjv888WoJ-7" value="&lt;font style=&quot;font-size: 16px;&quot;&gt;&lt;b&gt;个人计算机&lt;/b&gt;&lt;/font&gt;" style="text;html=1;strokeColor=none;fillColor=none;align=center;verticalAlign=middle;whiteSpace=wrap;rounded=0;" vertex="1" parent="1">
          <mxGeometry x="235" y="250" width="90" height="4" as="geometry" />
        </mxCell>
        <mxCell id="GNgH9nkebO3Cjv888WoJ-8" value="&lt;font style=&quot;font-size: 16px;&quot;&gt;&lt;b&gt;远程跟踪分支&lt;/b&gt;&lt;/font&gt;" style="rounded=1;whiteSpace=wrap;html=1;fillColor=#fff2cc;strokeColor=#d6b656;" vertex="1" parent="1">
          <mxGeometry x="230" y="330" width="120" height="60" as="geometry" />
        </mxCell>
        <mxCell id="GNgH9nkebO3Cjv888WoJ-16" style="rounded=0;orthogonalLoop=1;jettySize=auto;html=1;exitX=1;exitY=0.5;exitDx=0;exitDy=0;entryX=0;entryY=0.5;entryDx=0;entryDy=0;" edge="1" parent="1" source="GNgH9nkebO3Cjv888WoJ-9" target="GNgH9nkebO3Cjv888WoJ-11">
          <mxGeometry relative="1" as="geometry" />
        </mxCell>
        <mxCell id="GNgH9nkebO3Cjv888WoJ-9" value="&lt;font style=&quot;font-size: 16px;&quot;&gt;&lt;b&gt;本地分支&lt;/b&gt;&lt;/font&gt;" style="rounded=1;whiteSpace=wrap;html=1;fillColor=#fff2cc;strokeColor=#d6b656;" vertex="1" parent="1">
          <mxGeometry x="230" y="440" width="120" height="60" as="geometry" />
        </mxCell>
        <mxCell id="GNgH9nkebO3Cjv888WoJ-17" style="edgeStyle=orthogonalEdgeStyle;rounded=0;orthogonalLoop=1;jettySize=auto;html=1;exitX=0.422;exitY=1;exitDx=0;exitDy=0;entryX=0.75;entryY=0;entryDx=0;entryDy=0;curved=1;exitPerimeter=0;" edge="1" parent="1" source="GNgH9nkebO3Cjv888WoJ-11" target="GNgH9nkebO3Cjv888WoJ-12">
          <mxGeometry relative="1" as="geometry" />
        </mxCell>
        <mxCell id="GNgH9nkebO3Cjv888WoJ-11" value="&lt;font style=&quot;font-size: 16px;&quot;&gt;&lt;b&gt;工作区&lt;br&gt;（&lt;/b&gt;即开发目录&lt;b&gt;）&lt;br&gt;&lt;/b&gt;&lt;/font&gt;" style="rounded=1;whiteSpace=wrap;html=1;fillColor=#f8cecc;strokeColor=#b85450;" vertex="1" parent="1">
          <mxGeometry x="410" y="330" width="180" height="160" as="geometry" />
        </mxCell>
        <mxCell id="GNgH9nkebO3Cjv888WoJ-20" style="edgeStyle=orthogonalEdgeStyle;rounded=0;orthogonalLoop=1;jettySize=auto;html=1;exitX=0.5;exitY=0;exitDx=0;exitDy=0;entryX=0.5;entryY=1;entryDx=0;entryDy=0;" edge="1" parent="1" source="GNgH9nkebO3Cjv888WoJ-12" target="GNgH9nkebO3Cjv888WoJ-9">
          <mxGeometry relative="1" as="geometry" />
        </mxCell>
        <mxCell id="GNgH9nkebO3Cjv888WoJ-12" value="&lt;font style=&quot;font-size: 16px;&quot;&gt;&lt;b&gt;暂存区&lt;/b&gt;&lt;/font&gt;" style="rounded=1;whiteSpace=wrap;html=1;fillColor=#d5e8d4;strokeColor=#82b366;" vertex="1" parent="1">
          <mxGeometry x="230" y="554.5" width="120" height="60" as="geometry" />
        </mxCell>
        <mxCell id="GNgH9nkebO3Cjv888WoJ-13" value="&lt;font style=&quot;font-size: 16px;&quot;&gt;&lt;b&gt;贮藏区&lt;/b&gt;&lt;/font&gt;" style="rounded=1;whiteSpace=wrap;html=1;fillColor=#d5e8d4;strokeColor=#82b366;" vertex="1" parent="1">
          <mxGeometry x="440" y="555" width="120" height="60" as="geometry" />
        </mxCell>
        <mxCell id="GNgH9nkebO3Cjv888WoJ-14" value="" style="endArrow=classic;startArrow=classic;html=1;rounded=0;entryX=0.5;entryY=1;entryDx=0;entryDy=0;" edge="1" parent="1" target="GNgH9nkebO3Cjv888WoJ-1">
          <mxGeometry width="50" height="50" relative="1" as="geometry">
            <mxPoint x="310" y="330" as="sourcePoint" />
            <mxPoint x="360" y="280" as="targetPoint" />
          </mxGeometry>
        </mxCell>
        <mxCell id="GNgH9nkebO3Cjv888WoJ-15" value="" style="endArrow=classic;startArrow=classic;html=1;rounded=0;entryX=0.5;entryY=1;entryDx=0;entryDy=0;exitX=0.5;exitY=0;exitDx=0;exitDy=0;" edge="1" parent="1" source="GNgH9nkebO3Cjv888WoJ-9" target="GNgH9nkebO3Cjv888WoJ-8">
          <mxGeometry width="50" height="50" relative="1" as="geometry">
            <mxPoint x="150" y="465" as="sourcePoint" />
            <mxPoint x="200" y="415" as="targetPoint" />
          </mxGeometry>
        </mxCell>
        <mxCell id="GNgH9nkebO3Cjv888WoJ-21" value="" style="endArrow=classic;startArrow=classic;html=1;rounded=0;entryX=0.5;entryY=0;entryDx=0;entryDy=0;" edge="1" parent="1" source="GNgH9nkebO3Cjv888WoJ-11" target="GNgH9nkebO3Cjv888WoJ-13">
          <mxGeometry width="50" height="50" relative="1" as="geometry">
            <mxPoint x="710" y="530" as="sourcePoint" />
            <mxPoint x="760" y="480" as="targetPoint" />
          </mxGeometry>
        </mxCell>
        <mxCell id="GNgH9nkebO3Cjv888WoJ-25" style="edgeStyle=orthogonalEdgeStyle;rounded=0;orthogonalLoop=1;jettySize=auto;html=1;exitX=1;exitY=0.5;exitDx=0;exitDy=0;entryX=0;entryY=0.5;entryDx=0;entryDy=0;curved=1;" edge="1" parent="1" source="GNgH9nkebO3Cjv888WoJ-22" target="GNgH9nkebO3Cjv888WoJ-24">
          <mxGeometry relative="1" as="geometry" />
        </mxCell>
        <mxCell id="GNgH9nkebO3Cjv888WoJ-28" value="未完成" style="edgeLabel;html=1;align=center;verticalAlign=middle;resizable=0;points=[];fontStyle=1;fontSize=16;" vertex="1" connectable="0" parent="GNgH9nkebO3Cjv888WoJ-25">
          <mxGeometry x="-0.2421" y="-2" relative="1" as="geometry">
            <mxPoint as="offset" />
          </mxGeometry>
        </mxCell>
        <mxCell id="GNgH9nkebO3Cjv888WoJ-26" style="edgeStyle=orthogonalEdgeStyle;rounded=0;orthogonalLoop=1;jettySize=auto;html=1;exitX=1;exitY=0.5;exitDx=0;exitDy=0;entryX=0;entryY=0.5;entryDx=0;entryDy=0;curved=1;" edge="1" parent="1" source="GNgH9nkebO3Cjv888WoJ-22" target="GNgH9nkebO3Cjv888WoJ-23">
          <mxGeometry relative="1" as="geometry" />
        </mxCell>
        <mxCell id="GNgH9nkebO3Cjv888WoJ-27" value="已完成" style="edgeLabel;html=1;align=center;verticalAlign=middle;resizable=0;points=[];fontStyle=1;fontSize=16;" vertex="1" connectable="0" parent="GNgH9nkebO3Cjv888WoJ-26">
          <mxGeometry x="0.03" relative="1" as="geometry">
            <mxPoint as="offset" />
          </mxGeometry>
        </mxCell>
        <mxCell id="GNgH9nkebO3Cjv888WoJ-22" value="&lt;font style=&quot;font-size: 16px;&quot;&gt;&lt;b&gt;工作区&lt;br&gt;（&lt;/b&gt;即开发目录&lt;b&gt;）&lt;br&gt;&lt;/b&gt;&lt;/font&gt;" style="rounded=1;whiteSpace=wrap;html=1;fillColor=#f8cecc;strokeColor=#b85450;" vertex="1" parent="1">
          <mxGeometry x="190" y="870" width="180" height="160" as="geometry" />
        </mxCell>
        <mxCell id="GNgH9nkebO3Cjv888WoJ-23" value="&lt;font style=&quot;font-size: 16px;&quot;&gt;&lt;b&gt;暂存区&lt;br&gt;（index）&lt;br&gt;&lt;/b&gt;&lt;/font&gt;" style="rounded=1;whiteSpace=wrap;html=1;fillColor=#d5e8d4;strokeColor=#82b366;" vertex="1" parent="1">
          <mxGeometry x="460" y="810" width="120" height="60" as="geometry" />
        </mxCell>
        <mxCell id="GNgH9nkebO3Cjv888WoJ-24" value="&lt;font style=&quot;font-size: 16px;&quot;&gt;&lt;b&gt;贮藏区&lt;br&gt;(stash)&lt;br&gt;&lt;/b&gt;&lt;/font&gt;" style="rounded=1;whiteSpace=wrap;html=1;fillColor=#d5e8d4;strokeColor=#82b366;" vertex="1" parent="1">
          <mxGeometry x="460" y="1020" width="120" height="60" as="geometry" />
        </mxCell>
      </root>
    </mxGraphModel>
  </diagram>
</mxfile>
